<?xml version="1.0" standalone="no"?>
<!DOCTYPE svg PUBLIC "-//W3C//DTD SVG 1.0//EN" "http://www.w3.org/TR/2001/REC-SVG-20010904/DTD/svg10.dtd">
<svg xmlns="http://www.w3.org/2000/svg" xmlns:xlink="http://www.w3.org/1999/xlink" id="body_1" width="52" height="52">

<g transform="matrix(0.10089213 0 0 0.10089213 0 0)">
	<g>
		<g>
            <path d="M276.606 105.993C 287.338 49.282 244.55 -5.29 184.687 0.411C 155.489 3.193 155.219 49.117 184.687 46.311C 212.51799 43.661 237.996 63.931 232.347 93.79C 226.873 122.713 271.107 135.054 276.606 105.993z" stroke="none" fill="#000000" fill-rule="nonzero" />
            <path d="M47.905 190.443C 34.995 227.435 39.135 271.356 45.717 309.11C 57.926 379.151 93.018 490.274 171.287 512.463C 178.386 514.477 185.452 515.403 192.41 515.403C 215.669 515.403 237.784 505.036 256.41 490.13602C 277.781 507.23303 298.696 514.73004 318.574 514.73004C 435.883 514.73004 517.762 254.04205 453.20502 167.63705C 450.17603 163.58206 446.85202 159.83705 443.27502 156.38605C 419.06403 133.04105 383.11603 123.23105 346.84503 123.23105C 314.19202 123.23105 281.27603 131.17805 256.40704 144.35706C 256.29706 144.41505 256.14404 144.44206 255.94804 144.44206C 252.52104 144.44206 236.56905 136.02406 234.21004 135.21306C 215.15503 128.66505 195.01703 124.67406 174.87004 123.943054C 172.63004 123.860054 170.36005 123.82005 168.08005 123.82005C 120.326 123.814 64.824 141.963 47.905 190.443z" stroke="none" fill="#000000" fill-rule="nonzero" />
		</g>
	</g>
	<g>
	</g>
	<g>
	</g>
	<g>
	</g>
	<g>
	</g>
	<g>
	</g>
	<g>
	</g>
	<g>
	</g>
	<g>
	</g>
	<g>
	</g>
	<g>
	</g>
	<g>
	</g>
	<g>
	</g>
	<g>
	</g>
	<g>
	</g>
	<g>
	</g>
</g>
</svg>